<?xml version="1.0" encoding="UTF-8"?>
<!--Generator: Apple Native CoreSVG 175-->
<!DOCTYPE svg
PUBLIC "-//W3C//DTD SVG 1.1//EN"
       "http://www.w3.org/Graphics/SVG/1.1/DTD/svg11.dtd">
<svg version="1.1" xmlns="http://www.w3.org/2000/svg" xmlns:xlink="http://www.w3.org/1999/xlink" width="100" height="100">
 <!--glyph: "", point size: 100.0, font version: "17.1d1e1", template writer version: "65.1"-->
 <g id="Regular-S" transform="matrix(1 0 0 1 0 80)">
   <path d="M16.7566-13.2565L20.2722-7.20179L47.7136-20.9714L75.155-7.20179L78.6706-13.2565L51.2292-27.0261L51.2292-59.4968L44.198-59.4968L44.198-27.0261ZM7.86985-7.83656Q7.03978-5.93226 7.74778-4.76039Q8.45579-3.58851 10.4577-3.34437L26.4245-1.4889Q28.3777-1.24476 29.6472-1.87953Q30.9167-2.51429 31.2097-3.80824Q31.5027-5.10218 30.4773-6.86L20.907-23.3639Q19.9304-25.1218 18.6609-25.5124Q17.3913-25.903 16.2195-25.1462Q15.0476-24.3893 14.2663-22.6315ZM87.5574-7.83656L81.1609-22.6315Q80.3796-24.3893 79.2077-25.1462Q78.0359-25.903 76.7663-25.5124Q75.4968-25.1218 74.5202-23.3639L64.9499-6.86Q63.9245-5.10218 64.2175-3.80824Q64.5105-2.51429 65.78-1.87953Q67.0495-1.24476 69.0027-1.4889L84.9695-3.34437Q86.9714-3.58851 87.6794-4.76039Q88.3874-5.93226 87.5574-7.83656ZM45.0769-70.3366L35.5066-57.446Q34.3347-55.9323 34.2615-54.5163Q34.1882-53.1003 35.1648-52.1725Q36.1413-51.2448 38.1433-51.2448L57.1863-51.2448Q59.237-51.2448 60.238-52.1481Q61.239-53.0514 61.1413-54.4675Q61.0437-55.8835 59.8718-57.446L50.2527-70.3366Q48.9831-71.9968 47.6648-72.0212Q46.3464-72.0456 45.0769-70.3366Z"/>
  </g>
</svg>
